#!OML:ASF F:\VICON\USERDATA\INSTALL\rory3\rory3.ASF
:FULLY-SPECIFIED
:DEGREES
316
root 0.989313 17.3481 -17.0344 1.56053 -3.2647 0.108928
lowerback 8.41271 -0.302312 -1.75219
upperback 1.16627 -0.499063 1.67485
thorax -3.47826 -0.217027 2.77894
lowerneck -17.0694 -3.44005 -9.74773
upperneck 15.6622 -3.66381 7.48516
head 7.9742 -1.6007 3.66771
rclavicle -1.6201e-014 1.27222e-014
rhumerus -39.3164 -12.9381 -76.5859
rradius 36.1328
rwrist 3.66878
rhand -13.5113 17.0536
rfingers 7.12502
rthumb 12.6003 -12.5464
lclavicle -1.6201e-014 1.27222e-014
lhumerus -38.2455 13.9595 80.2683
lradius 35.4357
lwrist 0.35144
lhand -18.9181 20.4686
lfingers 7.12502
lthumb 7.38419 50.3197
rfemur -11.6998 0.0139736 24.3634
rtibia 34.4568
rfoot -18.3295 -8.79856
rtoes 5.58377
lfemur -14.1392 1.16446 -19.6302
ltibia 35.883
lfoot -18.5611 2.84443
ltoes -2.8225
317
root 0.98437 17.4002 -17.0366 1.85967 -3.24806 0.203948
lowerback 8.0821 -0.302752 -1.79932
upperback 1.01298 -0.501887 1.61137
thorax -3.45279 -0.216844 2.73694
lowerneck -17.0767 -3.50062 -9.66181
upperneck 15.6464 -3.76765 7.48393
head 7.97818 -1.64464 3.63998
rclavicle -4.82053e-015 1.59028e-015
rhumerus -39.9952 -12.7211 -76.4301
rradius 36.4674
rwrist 3.28962
rhand -13.4574 17.1348
rfingers 7.12502
rthumb 12.6522 -12.462
lclavicle -4.82053e-015 1.59028e-015
lhumerus -38.9899 14.0353 79.9974
lradius 35.4133
lwrist 0.162765
lhand -18.3846 19.7486
lfingers 7.12502
lthumb 7.8991 49.581
rfemur -11.3045 0.478943 24.2532
rtibia 33.0824
rfoot -17.8043 -8.75525
rtoes 7.15516
lfemur -13.8198 0.612859 -19.7902
ltibia 34.6783
lfoot -17.9577 3.3263
ltoes -3.22705
318
root 0.979531 17.448 -17.0341 2.21529 -3.18539 0.328819
lowerback 7.68014 -0.377418 -1.86715
upperback 0.814817 -0.603218 1.56613
thorax -3.42732 -0.264743 2.73542
lowerneck -17.1209 -3.49853 -9.63793
upperneck 15.767 -3.77054 7.47416
head 8.02563 -1.64544 3.6338
rclavicle -1.96797e-014 1.66979e-014
rhumerus -40.7022 -12.4539 -76.26
rradius 36.9615
rwrist 2.70801
rhand -12.97 17.1173
rfingers 7.12502
rthumb 13.1221 -12.4499
lclavicle -1.96797e-014 1.66979e-014
lhumerus -39.7938 14.1495 79.74
lradius 35.4195
lwrist -0.110631
lhand -18.2705 19.1761
lfingers 7.12502
lthumb 8.00931 49.0043
rfemur -10.9984 0.881409 24.1289
rtibia 31.8206
rfoot -17.3589 -8.81404
rtoes 7.56836
lfemur -13.5975 0.00820864 -19.9656
ltibia 33.5488
lfoot -17.4016 3.76246
ltoes -3.10293
319
root 0.976383 17.4861 -17.0329 2.50544 -3.25517 0.304406
lowerback 7.43637 -0.392881 -1.7469
upperback 0.608311 -0.611004 1.54373
thorax -3.50602 -0.26722 2.64371
lowerneck -17.1884 -3.5192 -9.67981
upperneck 15.9 -3.79553 7.51231
head 8.08571 -1.65567 3.6522
rclavicle -3.34952e-014 -1.07344e-014
rhumerus -41.4861 -12.184 -76.0727
rradius 37.5792
rwrist 1.90818
rhand -12.1705 17.421
rfingers 7.12502
rthumb 13.8927 -12.0949
lclavicle -3.34952e-014 -1.07344e-014
lhumerus -40.5965 14.1212 79.5085
lradius 35.4839
lwrist -0.194571
lhand -18.7231 19.0436
lfingers 7.12502
lthumb 7.57244 48.888
rfemur -10.6453 1.22888 24.2053
rtibia 30.6328
rfoot -16.7776 -9.07365
rtoes 5.93648
lfemur -13.3102 -0.495808 -19.9788
ltibia 32.4887
lfoot -16.9468 4.23839
ltoes -2.60652
320
root 0.972049 17.5193 -17.0355 2.67829 -3.57235 0.285381
lowerback 7.22338 -0.277877 -1.6794
upperback 0.612584 -0.451039 1.51771
thorax -3.39241 -0.190445 2.55968
lowerneck -17.6593 -3.65327 -9.69713
upperneck 16.0211 -3.93322 7.50054
head 8.22206 -1.71452 3.63319
rclavicle 3.18552e-014 2.18663e-014
rhumerus -41.938 -11.9343 -75.9177
rradius 38.0107
rwrist 1.09592
rhand -11.766 17.9916
rfingers 7.12502
rthumb 14.2825 -11.4972
lclavicle 3.18552e-014 2.18663e-014
lhumerus -41.0504 14.0677 79.3968
lradius 35.6585
lwrist -0.158252
lhand -19.0334 18.3249
lfingers 7.12502
lthumb 7.27289 48.1799
rfemur -10.2448 1.75536 24.2525
rtibia 29.514
rfoot -16.1715 -9.25854
rtoes 5.37631
lfemur -12.8737 -0.821632 -20.0138
ltibia 31.4421
lfoot -16.5634 4.85931
ltoes -2.07359
321
root 0.963361 17.5505 -17.0348 2.81103 -3.62825 0.331703
lowerback 6.92865 -0.237464 -1.69093
upperback 0.653806 -0.396448 1.47761
thorax -3.18804 -0.166401 2.51568
lowerneck -18.0938 -3.80022 -9.73476
upperneck 16.1847 -4.09854 7.53781
head 8.37066 -1.78355 3.63102
rclavicle -2.48481e-016 1.78906e-014
rhumerus -42.3161 -11.6808 -75.8216
rradius 38.3847
rwrist 0.751943
rhand -12.1598 16.8922
rfingers 7.12502
rthumb 13.903 -12.6231
lclavicle -2.48481e-016 1.78906e-014
lhumerus -41.341 13.939 79.3282
lradius 35.7287
lwrist -0.0730146
lhand -19.2021 18.3357
lfingers 7.12502
lthumb 7.11012 48.1963
rfemur -9.79722 2.25971 24.2602
rtibia 28.4548
rfoot -15.7333 -9.53318
rtoes 5.72504
lfemur -12.4165 -1.24463 -20.0727
ltibia 30.4151
lfoot -16.1719 5.27635
ltoes -1.39483
322
root 0.950501 17.5795 -17.0324 2.97224 -3.15078 0.478869
lowerback 6.69632 -0.393204 -1.81126
upperback 0.496367 -0.610762 1.44594
thorax -3.20791 -0.269674 2.56935
lowerneck -17.9551 -3.84683 -9.87658
upperneck 16.1889 -4.16308 7.65905
head 8.35974 -1.81356 3.68855
rclavicle 4.22417e-015 7.15625e-015
rhumerus -42.9572 -11.1844 -75.7274
rradius 38.9007
rwrist 0.430034
rhand -12.6945 14.5148
rfingers 7.12502
rthumb 13.3877 -15.0351
lclavicle 4.22417e-015 7.15625e-015
lhumerus -41.9641 13.5104 79.3157
lradius 35.8469
lwrist 0.485589
lhand -19.739 19.9754
lfingers 7.12502
lthumb 6.59174 49.8528
rfemur -9.35665 2.52817 24.2025
rtibia 27.4714
rfoot -15.5167 -9.91675
rtoes 6.65344
lfemur -12.0799 -2.00023 -20.1759
ltibia 29.4452
lfoot -15.7597 5.47115
ltoes -0.726402
323
root 0.943272 17.6051 -17.0303 3.14923 -2.87274 0.559069
lowerback 6.60587 -0.465169 -1.80074
upperback 0.332865 -0.706056 1.39557
thorax -3.32162 -0.314345 2.52036
lowerneck -18.0453 -3.87273 -9.90613
upperneck 16.235 -4.1981 7.72683
head 8.39667 -1.82356 3.71245
rclavicle -2.23633e-015 3.02153e-014
rhumerus -43.5854 -10.7707 -75.6215
rradius 39.4099
rwrist -0.157064
rhand -12.4277 14.6954
rfingers 7.12502
rthumb 13.6448 -14.8373
lclavicle -2.23633e-015 3.02153e-014
lhumerus -42.5073 13.2763 79.0988
lradius 35.7401
lwrist 0.573415
lhand -19.9316 19.5516
lfingers 7.12502
lthumb 6.40585 49.4347
rfemur -9.00851 2.75036 24.1435
rtibia 26.5922
rfoot -15.4379 -10.027
rtoes 7.78216
lfemur -11.8223 -2.69349 -20.245
ltibia 28.5712
lfoot -15.43 5.82878
ltoes -0.538354
324
root 0.944301 17.6221 -17.0364 3.3317 -3.13015 0.432755
lowerback 6.5534 -0.368586 -1.57483
upperback 0.343933 -0.559817 1.40089
thorax -3.29107 -0.245471 2.38424
lowerneck -18.5121 -3.93444 -9.88053
upperneck 16.1377 -4.2345 7.70548
head 8.44847 -1.83113 3.6923
rclavicle 6.95746e-015 3.97569e-016
rhumerus -43.7015 -10.4582 -75.5668
rradius 39.7264
rwrist -0.439103
rhand -12.1311 15.6953
rfingers 7.12502
rthumb 13.9307 -13.818
lclavicle 6.95746e-015 3.97569e-016
lhumerus -42.5545 13.1884 79.0509
lradius 35.7166
lwrist 0.695461
lhand -19.8388 19.6777
lfingers 7.12502
lthumb 6.49548 49.5581
rfemur -8.8191 2.9955 24.226
rtibia 25.8258
rfoot -15.1365 -9.84832
rtoes 8.01343
lfemur -11.6188 -2.90797 -20.1445
ltibia 27.8499
lfoot -15.1704 6.23447
ltoes -0.311346
325
root 0.944834 17.6346 -17.0508 3.59769 -3.51003 0.212315
lowerback 6.39825 -0.238675 -1.31428
upperback 0.353507 -0.364744 1.45111
thorax -3.20571 -0.153004 2.26985
lowerneck -18.756 -3.99234 -9.81752
upperneck 15.8442 -4.27987 7.64171
head 8.39366 -1.84843 3.64848
rclavicle -1.27222e-014 -1.94809e-014
rhumerus -43.7027 -10.0329 -75.5794
rradius 40.0232
rwrist -0.613942
rhand -12.3321 15.4338
rfingers 7.12502
rthumb 13.7369 -14.0928
lclavicle -1.27222e-014 -1.94809e-014
lhumerus -42.5848 13.1138 79.0314
lradius 35.7223
lwrist 0.855123
lhand -19.7566 19.0315
lfingers 7.12502
lthumb 6.57476 48.9094
rfemur -8.82137 3.26249 24.4046
rtibia 25.1384
rfoot -14.7064 -9.57803
rtoes 7.94512
lfemur -11.6122 -2.88327 -19.9304
ltibia 27.3218
lfoot -14.9223 6.57009
ltoes -0.265977
326
root 0.942142 17.642 -17.0688 3.9233 -3.62825 0.013232
lowerback 6.18152 -0.171334 -1.00178
upperback 0.339985 -0.252132 1.43536
thorax -3.10503 -0.102399 2.06574
lowerneck -19.1068 -4.0697 -9.72661
upperneck 15.7694 -4.37447 7.64547
head 8.43664 -1.87944 3.61925
rclavicle 1.89839e-014 -2.82274e-014
rhumerus -43.8019 -9.6859 -75.6353
rradius 40.4008
rwrist -1.09388
rhand -12.0943 16.133
rfingers 7.12502
rthumb 13.9662 -13.3779
lclavicle 1.89839e-014 -2.82274e-014
lhumerus -42.6274 13.0029 78.8553
lradius 35.7691
lwrist 0.695769
lhand -19.7153 18.3099
lfingers 7.12502
lthumb 6.61469 48.1866
rfemur -8.92853 3.35604 24.6152
rtibia 24.5111
rfoot -14.226 -9.48359
rtoes 6.67952
lfemur -11.8262 -3.10946 -19.6843
ltibia 26.9782
lfoot -14.7895 6.84791
ltoes -0.012607
327
root 0.938547 17.6492 -17.0867 4.18578 -3.553 -0.00758676
lowerback 6.05978 -0.175039 -0.925822
upperback 0.288158 -0.250773 1.44411
thorax -3.09064 -0.10248 2.03127
lowerneck -19.3232 -4.142 -9.73337
upperneck 15.7397 -4.44169 7.60855
head 8.46999 -1.9107 3.59685
rclavicle 3.97569e-016 5.96354e-015
rhumerus -43.9004 -9.30955 -75.5298
rradius 40.5596
rwrist -1.23424
rhand -11.8426 17.3772
rfingers 7.12502
rthumb 14.2086 -12.1169
lclavicle 3.97569e-016 5.96354e-015
lhumerus -42.6763 13.0691 78.6947
lradius 35.7034
lwrist 0.367651
lhand -19.5567 18.6478
lfingers 7.12502
lthumb 6.76774 48.5196
rfemur -9.00273 3.26099 24.6435
rtibia 23.9648
rfoot -13.8094 -9.40437
rtoes 5.49748
lfemur -12.0464 -3.39596 -19.61
ltibia 26.7015
lfoot -14.731 6.96394
ltoes 0.882333
328
root 0.936305 17.6606 -17.1009 4.40802 -3.5146 -0.0129206
lowerback 5.99286 -0.200803 -0.909567
upperback 0.153206 -0.280663 1.50988
thorax -3.19102 -0.115331 2.09303
lowerneck -19.1714 -4.09466 -9.89196
upperneck 15.5938 -4.34679 7.64606
head 8.38995 -1.87422 3.64767
rclavicle 1.48592e-014 1.59028e-014
rhumerus -44.0582 -8.69908 -75.4389
rradius 40.5839
rwrist -1.0962
rhand -12.3103 17.9922
rfingers 7.12502
rthumb 13.7579 -11.5329
lclavicle 1.48592e-014 1.59028e-014
lhumerus -42.9336 13.1784 78.5661
lradius 35.5672
lwrist 0.192136
lhand -19.4952 19.3065
lfingers 7.12502
lthumb 6.82712 49.1765
rfemur -9.08781 3.10574 24.6133
rtibia 23.5325
rfoot -13.6134 -9.15536
rtoes 5.81699
lfemur -12.1673 -3.54976 -19.5638
ltibia 26.4022
lfoot -14.6339 6.99252
ltoes 1.96306
